<?xml version="1.0" standalone="no"?>
<!DOCTYPE svg PUBLIC "-//W3C//DTD SVG 20010904//EN"
 "http://www.w3.org/TR/2001/REC-SVG-20010904/DTD/svg10.dtd">
<svg version="1.0" xmlns="http://www.w3.org/2000/svg"
 width="327.000000pt" height="285.000000pt" viewBox="0 0 327.000000 285.000000"
 preserveAspectRatio="xMidYMid meet">
<metadata>
Created by potrace 1.16, written by Peter Selinger 2001-2019
</metadata>
<g transform="translate(0.000000,285.000000) scale(0.100000,-0.100000)"
fill="#000000" stroke="none">
<path d="M1495 2673 c-211 -19 -466 -117 -640 -245 -148 -109 -300 -291 -387
-461 -39 -77 -94 -245 -109 -330 -9 -56 -17 -74 -42 -95 -34 -31 -66 -95 -67
-134 0 -45 29 -105 64 -132 28 -21 34 -34 45 -97 54 -297 241 -602 482 -783
170 -128 398 -224 569 -240 43 -4 38 -2 -25 10 -391 74 -732 333 -902 685 -58
119 -85 198 -109 318 -14 74 -21 88 -54 120 -73 69 -73 166 -1 233 36 34 41
45 56 123 71 379 328 715 680 889 178 88 335 126 532 127 68 1 120 5 117 10
-5 9 -125 10 -209 2z"/>
<path d="M1720 2667 c3 -3 48 -12 100 -21 431 -75 798 -375 960 -785 26 -67
70 -237 70 -272 0 -19 11 -35 36 -54 85 -65 85 -194 0 -258 -28 -22 -33 -34
-45 -102 -17 -104 -53 -211 -106 -320 -64 -130 -117 -206 -222 -315 -148 -155
-307 -257 -514 -330 -46 -17 -68 -27 -49 -24 52 9 208 75 295 125 305 174 543
506 605 844 6 33 13 69 15 81 3 11 16 26 30 34 33 18 65 86 65 139 0 51 -28
109 -67 137 -25 18 -31 33 -42 100 -59 353 -301 686 -632 873 -84 46 -191 89
-299 117 -92 24 -210 42 -200 31z"/>
<path d="M1447 2540 c-185 -29 -380 -112 -529 -224 -196 -149 -348 -376 -413
-616 -33 -123 -32 -141 4 -162 41 -23 63 -61 69 -116 6 -63 -17 -115 -62 -144
-43 -28 -44 -36 -12 -162 111 -436 488 -773 941 -841 119 -18 180 -19 300 -4
253 31 480 143 665 329 99 98 163 186 222 305 63 125 123 345 97 354 -31 10
-77 65 -88 104 -21 74 5 134 82 190 18 12 18 16 2 82 -54 240 -146 408 -314
576 -173 172 -348 267 -591 319 -72 15 -299 21 -373 10z m389 -25 c199 -42
409 -153 550 -291 166 -163 285 -375 325 -577 l13 -67 -41 -43 c-22 -23 -46
-52 -52 -64 -29 -56 2 -162 58 -202 39 -28 40 -57 6 -176 -94 -324 -331 -594
-640 -728 -641 -278 -1372 90 -1545 778 -25 102 -25 101 11 122 17 10 39 32
49 48 45 74 33 150 -34 220 l-44 44 14 68 c20 95 41 156 84 244 178 362 511
599 905 643 69 7 268 -4 341 -19z"/>
<path d="M1082 2165 c-155 -44 -232 -166 -232 -369 0 -86 4 -117 24 -172 40
-109 81 -160 280 -353 48 -47 99 -104 113 -128 30 -52 42 -151 24 -206 -24
-72 -128 -87 -175 -24 -17 23 -22 47 -25 115 -2 50 -8 90 -15 94 -14 9 -182
10 -215 1 -24 -6 -24 -7 -19 -117 9 -183 60 -276 186 -338 63 -31 72 -33 177
-33 97 0 116 3 165 26 69 33 122 86 157 157 22 46 27 72 31 161 9 219 -24 289
-233 496 -84 83 -165 173 -181 200 -26 44 -29 59 -29 133 0 79 1 85 28 108 41
35 99 33 138 -5 26 -26 29 -36 29 -93 0 -36 5 -69 12 -76 14 -14 205 -17 227
-3 21 14 9 170 -19 243 -26 69 -88 135 -157 168 -62 30 -212 37 -291 15z m253
-16 c130 -40 201 -147 212 -316 l6 -83 -116 0 c-107 0 -115 1 -110 19 2 10 0
45 -6 77 -13 73 -43 104 -101 104 -89 0 -120 -38 -120 -147 0 -106 28 -151
196 -318 222 -219 248 -270 249 -470 0 -127 -1 -132 -33 -197 -37 -76 -73
-110 -152 -146 -46 -22 -70 -26 -150 -26 -117 -1 -180 19 -245 76 -79 69 -115
170 -115 320 l0 68 115 0 115 0 0 -84 c0 -70 4 -88 23 -116 40 -61 134 -65
181 -9 23 27 26 40 26 102 0 115 -25 155 -194 322 -217 213 -251 277 -251 480
0 111 3 125 29 183 42 91 112 148 211 172 60 15 162 10 230 -11z"/>
<path d="M1910 2171 c-132 -29 -216 -118 -245 -257 -18 -87 -22 -904 -4 -1000
16 -85 53 -157 105 -203 66 -58 127 -76 254 -75 133 0 188 22 260 101 73 79
92 149 94 341 l1 147 -122 3 -123 3 -1 -128 c0 -157 -10 -191 -62 -217 -33
-16 -45 -17 -78 -7 -76 23 -74 9 -76 511 -1 257 2 461 8 482 12 46 42 68 91
68 92 0 114 -34 111 -179 -2 -64 2 -110 8 -118 8 -9 41 -13 115 -13 139 0 138
-1 130 149 -4 64 -10 132 -15 151 -22 96 -78 168 -166 211 -56 28 -77 32 -158
35 -50 2 -108 -1 -127 -5z m251 -25 c55 -20 112 -66 144 -116 40 -64 55 -133
55 -262 l0 -118 -110 0 -110 0 0 103 c0 150 -30 197 -126 197 -52 0 -90 -28
-104 -78 -8 -25 -10 -184 -8 -487 3 -419 4 -452 22 -477 40 -60 152 -60 192 0
16 22 20 51 22 170 l4 142 109 0 109 0 0 -148 c0 -168 -11 -222 -63 -298 -101
-153 -381 -178 -525 -49 -56 51 -86 111 -101 206 -14 85 -14 863 0 949 24 152
104 246 236 280 53 13 199 5 254 -14z"/>
</g>
</svg>
